<?xml version="1.0" encoding="UTF-8" standalone="no"?>
<svg
   viewBox="0 0 496 496"
   version="1.1"
   id="svg6"
   sodipodi:docname="spotify_icon.svg"
   width="496"
   height="496"
   inkscape:version="1.2.1 (9c6d41e410, 2022-07-14)"
   xmlns:inkscape="http://www.inkscape.org/namespaces/inkscape"
   xmlns:sodipodi="http://sodipodi.sourceforge.net/DTD/sodipodi-0.dtd"
   xmlns="http://www.w3.org/2000/svg"
   xmlns:svg="http://www.w3.org/2000/svg">
  <defs
     id="defs10" />
  <sodipodi:namedview
     id="namedview8"
     pagecolor="#505050"
     bordercolor="#ffffff"
     borderopacity="1"
     inkscape:showpageshadow="0"
     inkscape:pageopacity="0"
     inkscape:pagecheckerboard="1"
     inkscape:deskcolor="#505050"
     showgrid="false"
     inkscape:zoom="1.7626611"
     inkscape:cx="253.59385"
     inkscape:cy="-53.895784"
     inkscape:window-width="1920"
     inkscape:window-height="986"
     inkscape:window-x="-11"
     inkscape:window-y="-11"
     inkscape:window-maximized="1"
     inkscape:current-layer="svg6" />
  <path
     fill="#1ed760"
     d="M 248,0 C 111.1,0 0,111.1 0,248 0,384.9 111.1,496 248,496 384.9,496 496,384.9 496,248 496,111.1 384.9,0 248,0 Z"
     id="path2" />
  <path
     d="m 406.6,223.1 c -5.2,0 -8.4,-1.3 -12.9,-3.9 -71.2,-42.5 -198.5,-52.7 -280.9,-29.7 -3.6,1 -8.1,2.6 -12.9,2.6 -13.2,0 -23.3,-10.3 -23.3,-23.6 0,-13.6 8.4,-21.3 17.4,-23.9 35.2,-10.3 74.6,-15.2 117.5,-15.2 73,0 149.5,15.2 205.4,47.8 7.8,4.5 12.9,10.7 12.9,22.6 0,13.6 -11,23.3 -23.2,23.3 z m -31,76.2 c -5.2,0 -8.7,-2.3 -12.3,-4.2 -62.5,-37 -155.7,-51.9 -238.6,-29.4 -4.8,1.3 -7.4,2.6 -11.9,2.6 -10.7,0 -19.4,-8.7 -19.4,-19.4 0,-10.7 5.2,-17.8 15.5,-20.7 27.8,-7.8 56.2,-13.6 97.8,-13.6 64.9,0 127.6,16.1 177,45.5 8.1,4.8 11.3,11 11.3,19.7 -0.1,10.8 -8.5,19.5 -19.4,19.5 z m -26.9,65.6 c -4.2,0 -6.8,-1.3 -10.7,-3.6 -62.4,-37.6 -135,-39.2 -206.7,-24.5 -3.9,1 -9,2.6 -11.9,2.6 -9.7,0 -15.8,-7.7 -15.8,-15.8 0,-10.3 6.1,-15.2 13.6,-16.8 81.9,-18.1 165.6,-16.5 237,26.2 6.1,3.9 9.7,7.4 9.7,16.5 0,9.1 -7.1,15.4 -15.2,15.4 z"
     id="path4" />
</svg>
